<svg xmlns="http://www.w3.org/2000/svg" id="Layer_2" data-name="Layer 2" viewBox="0 0 400.5 317.21"><defs><style>.cls-1{fill:#231f20}.cls-2{fill:#2f2d32}</style></defs><g id="Layer_1-2" data-name="Layer 1"><path d="M194.71 99.2v115.77c-47.49-27.42-76.75-78.1-76.75-132.94V54.88z" class="cls-2"/><path d="M282.54 54.89v27.15c0 54.84-29.26 105.52-76.75 132.94s0-115.77 0-115.77zM277 44.32l-76.75 44.31-76.75-44.31L200.25 0z" class="cls-2"/><path d="M36.69 316.34 23.74 297H13.29v19.34H0v-60.43h27.62c14.24 0 22.79 7.51 22.79 19.94v.17c0 9.75-5.27 15.88-12.95 18.73l14.76 21.58H36.68Zm.26-39.8c0-5.7-3.97-8.63-10.44-8.63H13.29v17.35h13.47c6.47 0 10.19-3.45 10.19-8.55zM98.57 316.34v-60.43h45.58v11.83h-32.37V280h28.49v11.83h-28.49v12.69h32.8v11.83H98.57ZM214.06 317.21c-9.15 0-18.39-3.19-25.64-9.67l7.86-9.41c5.44 4.49 11.14 7.34 18.04 7.34 5.44 0 8.72-2.16 8.72-5.7v-.17c0-3.37-2.07-5.09-12.17-7.68-12.17-3.11-20.03-6.47-20.03-18.47v-.17c0-10.96 8.8-18.21 21.15-18.21 8.8 0 16.32 2.76 22.44 7.68l-6.91 10.01c-5.35-3.71-10.62-5.96-15.71-5.96s-7.77 2.33-7.77 5.27v.17c0 3.97 2.59 5.27 13.04 7.94 12.26 3.19 19.16 7.6 19.16 18.13v.17c0 12-9.15 18.73-22.18 18.73M284.58 316.34v-60.43h13.29v60.43zM377.89 316.34h-28.75v-60.43h28.05c12.35 0 19.94 6.13 19.94 15.62v.17c0 6.82-3.63 10.62-7.94 13.03 6.99 2.68 11.31 6.73 11.31 14.85v.17c0 11.05-8.98 16.57-22.62 16.57Zm6.04-42.56c0-3.97-3.11-6.21-8.72-6.21h-13.12v12.77h12.26c5.87 0 9.58-1.9 9.58-6.39zm3.37 24.17c0-4.06-3.02-6.56-9.84-6.56h-15.37v13.29h15.8c5.87 0 9.41-2.07 9.41-6.56z" class="cls-1"/></g></svg>